<?xml version="1.0" standalone="no"?>
<!DOCTYPE svg PUBLIC "-//W3C//DTD SVG 20010904//EN"
 "http://www.w3.org/TR/2001/REC-SVG-20010904/DTD/svg10.dtd">
<svg version="1.0" xmlns="http://www.w3.org/2000/svg"
 width="300.000000pt" height="118.000000pt" viewBox="0 0 300.000000 118.000000"
 preserveAspectRatio="xMidYMid meet">
<metadata>
Created by potrace 1.10, written by Peter Selinger 2001-2011
</metadata>
<g transform="translate(0.000000,118.000000) scale(0.050000,-0.050000)"
fill="#fed136" stroke="none">
<path d="M1130 2287 c-332 -74 -824 -454 -952 -736 -88 -193 -37 -429 116
-537 93 -67 492 -104 584 -55 37 20 52 19 80 -7 57 -52 400 -45 458 9 67 62
82 175 36 280 -23 54 147 38 210 -20 l53 -49 -78 -98 c-79 -100 -96 -167 -53
-210 37 -37 256 -30 326 11 186 108 546 -8 379 -122 -174 -118 -259 -316 -165
-382 60 -41 184 -40 219 2 15 18 101 82 192 142 91 60 195 143 231 186 36 42
89 86 118 97 61 23 392 295 453 373 58 73 59 68 43 -141 -14 -196 -8 -217 63
-207 46 7 47 11 52 257 7 284 15 300 156 300 101 0 111 -28 94 -252 -17 -237
19 -288 201 -288 122 1 214 108 214 251 0 56 8 69 40 69 49 0 49 -3 0 -95 -81
-151 -44 -206 158 -230 73 -9 174 -21 225 -27 53 -7 111 -2 135 11 35 18 50
15 86 -18 24 -23 53 -41 65 -41 14 0 22 -83 22 -245 0 -367 57 -495 168 -377
94 102 132 439 70 637 -11 36 -6 45 25 45 21 0 49 11 62 24 34 34 51 7 26 -41
-129 -239 266 -226 429 14 76 112 -26 156 -111 48 -185 -234 -268 -121 -149
204 136 372 118 340 202 347 198 15 312 113 235 202 -4 4 -56 -18 -116 -50
-147 -76 -154 -58 -53 143 47 94 83 174 79 177 -20 17 -102 54 -107 49 -3 -4
-29 -61 -59 -127 -98 -219 -126 -260 -181 -266 -53 -7 -76 -92 -29 -108 28 -9
-183 -482 -212 -476 -11 2 -17 14 -12 27 4 13 20 104 35 203 15 99 41 257 57
352 36 208 37 258 2 303 -41 54 -129 45 -152 -16 -49 -129 -180 -773 -180
-885 0 -53 -7 -65 -35 -60 -30 6 -34 26 -28 130 8 145 -8 206 -52 206 -17 0
-48 15 -69 33 -51 47 -123 10 -173 -87 -105 -210 -98 -202 -195 -209 -50 -4
-94 -4 -99 1 -9 9 55 122 70 123 49 3 103 84 92 136 l-13 58 -134 -9 c-212
-14 -248 -35 -241 -137 6 -103 -44 -189 -109 -189 -81 0 -91 31 -79 241 13
232 -13 299 -115 299 -33 0 -60 4 -60 9 0 16 346 359 436 432 l86 70 -49 46
-49 46 -310 -311 c-361 -362 -333 -368 -334 78 -1 334 -11 372 -87 332 -40
-22 -47 -39 -41 -99 3 -40 11 -185 16 -323 5 -137 18 -272 28 -300 22 -60 -69
-177 -297 -379 -162 -145 -164 -145 -130 -11 32 123 23 150 -50 150 -47 0 -58
-10 -69 -65 -26 -134 -49 -164 -177 -232 -190 -102 -294 -50 -174 87 121 139
163 257 103 289 -61 33 -95 6 -143 -111 -52 -128 -125 -188 -229 -188 l-73 0
70 82 c179 210 57 418 -144 246 -82 -71 -86 -72 -97 -29 -7 27 -22 39 -40 32
-114 -44 -186 -37 -186 18 l0 55 -170 -15 c-117 -9 -179 -7 -198 9 -42 35
-110 0 -275 -143 -242 -209 -301 -227 -625 -182 -267 36 -299 328 -66 596 243
280 600 508 799 511 25 0 35 16 35 60 0 62 -14 68 -110 47z m3972 -1030 c-12
-35 -22 -107 -22 -161 0 -106 -34 -198 -58 -158 -8 12 1 83 21 157 19 74 35
158 36 187 0 28 8 58 16 66 25 26 29 -27 7 -91z m-2973 -107 c-62 -81 -126
-100 -87 -25 12 25 47 70 75 101 74 80 84 18 12 -76z m-769 -35 l0 -75 -150 0
c-183 0 -185 8 -15 113 148 92 164 88 165 -38z m590 60 c-8 -25 -19 -73 -24
-108 -11 -67 -52 -96 -161 -115 -95 -16 -83 21 50 151 125 124 157 141 135 72z
m2766 -140 c-6 -98 -9 -105 -62 -111 l-56 -7 41 81 c22 44 41 94 41 111 0 17
9 31 21 31 13 0 19 -41 15 -105z m333 -506 c-1 -134 -10 -218 -25 -233 -19
-19 -24 35 -24 234 0 206 5 253 25 233 17 -17 25 -92 24 -234z m-2459 160
c-231 -172 -356 -248 -382 -233 -36 20 54 143 158 216 78 56 299 72 224 17z"/>
</g>
</svg>
